<svg width="24" height="24" viewBox="0 0 24 24" fill="none" xmlns="http://www.w3.org/2000/svg">
<g clip-path="url(#clip0_1_274)">
<path d="M23.9684 13.8915C23.9489 13.8454 23.9227 13.8071 23.8962 13.7775C23.8438 13.7193 23.7931 13.6888 23.7482 13.6658C23.6634 13.624 23.5892 13.6061 23.5088 13.5893C23.369 13.5615 23.2112 13.5463 23.034 13.5338C22.7696 13.5151 22.4654 13.5041 22.1706 13.4862C22.0222 13.4772 21.8757 13.4659 21.7403 13.4518C21.7543 13.3839 21.7625 13.3143 21.7621 13.244C21.7625 13.0691 21.7164 12.8949 21.6344 12.7333C21.552 12.5712 21.4357 12.4193 21.2888 12.2724C21.1486 12.1327 20.9753 11.9214 20.7804 11.6641C20.4387 11.2135 20.0283 10.6214 19.5507 9.98884C18.833 9.03953 17.9641 7.99651 16.9145 7.17962C16.3897 6.77115 15.8187 6.41968 15.1974 6.169C14.5765 5.91873 13.9049 5.77033 13.1887 5.77033C12.0969 5.76995 11.1121 6.11514 10.2451 6.63957C9.59377 7.03323 9.0053 7.52715 8.47266 8.06022C7.6741 8.8592 6.99891 9.74561 6.43425 10.5188C6.15193 10.905 5.89735 11.2631 5.6716 11.5653C5.54236 11.7383 5.4225 11.8926 5.3131 12.023C5.27639 11.9882 5.24049 11.9538 5.20608 11.9195C5.03817 11.7508 4.90191 11.5848 4.79958 11.3556C4.69767 11.1264 4.62619 10.8245 4.62586 10.377C4.62544 9.9654 4.6883 9.43281 4.84491 8.74239C4.875 8.60964 4.88944 8.47726 4.88944 8.34723C4.88944 8.04498 4.81017 7.75797 4.67508 7.50531C4.47244 7.12497 4.14985 6.81845 3.76955 6.60367C3.38803 6.38926 2.94558 6.26551 2.48911 6.26509C2.02678 6.26472 1.548 6.39587 1.12824 6.69381C0.744753 6.96681 0.472972 7.21787 0.28669 7.46701C0.194159 7.59161 0.12305 7.71615 0.0742998 7.84309C0.0254092 7.96961 2.97024e-06 8.09884 2.97024e-06 8.22536C-0.00037203 8.37179 0.0347842 8.51158 0.0925342 8.63186C0.142925 8.7377 0.2093 8.82948 0.282706 8.9087C0.41119 9.04773 0.561144 9.15161 0.711097 9.23673C0.936847 9.36287 1.16682 9.44528 1.34372 9.49918C1.35928 9.50387 1.37414 9.50856 1.38938 9.51245C1.45697 10.5074 1.59127 11.3236 1.76817 11.9984C2.05557 13.0949 2.45855 13.8204 2.86116 14.3152C3.06188 14.5624 3.2618 14.7513 3.43988 14.8993C3.61796 15.0474 3.77532 15.1559 3.8835 15.2375C4.13967 15.4296 4.38488 15.5679 4.61883 15.6592C4.791 15.7264 4.95741 15.7678 5.11632 15.785C5.34127 15.9197 5.89889 16.2333 6.76383 16.5679C6.75525 16.5992 6.74039 16.6378 6.72047 16.6804C6.66778 16.7944 6.58031 16.9366 6.48033 17.0771C6.32883 17.29 6.14803 17.5028 6.00628 17.6601C5.93522 17.7386 5.87466 17.8035 5.83172 17.8487C5.80983 17.8714 5.79347 17.8886 5.78133 17.8996L5.7743 17.9073C5.7743 17.9073 5.77003 17.912 5.76492 17.9171C5.7278 17.9526 5.58605 18.0901 5.43886 18.2873C5.35608 18.3998 5.27016 18.531 5.20102 18.6805C5.13267 18.8305 5.07839 18.9992 5.07727 19.1909C5.07647 19.3268 5.10849 19.4748 5.18386 19.6095C5.22525 19.6849 5.27794 19.747 5.33499 19.7989C5.43455 19.8907 5.5478 19.9563 5.66733 20.009C5.84813 20.0887 6.04688 20.1414 6.25542 20.1769C6.46392 20.2125 6.67992 20.2296 6.88842 20.2296C7.13677 20.2289 7.37185 20.2062 7.58114 20.1511C7.68582 20.1222 7.78421 20.086 7.8795 20.0289C7.92713 20.0004 7.97363 19.966 8.01774 19.9207C8.0611 19.877 8.10249 19.8207 8.13216 19.752C8.14931 19.7106 8.18372 19.6364 8.22821 19.5439C8.38364 19.2186 8.664 18.6625 8.90339 18.1912C9.02367 17.955 9.13341 17.7398 9.21305 17.584C9.25289 17.5055 9.28571 17.4422 9.30835 17.3981C9.33061 17.3548 9.34271 17.3305 9.34271 17.3305L9.34346 17.329L9.34542 17.327C9.34697 17.3239 9.34894 17.3204 9.34974 17.3169C10.4385 17.5399 11.7177 17.6941 13.1731 17.6941C13.25 17.6941 13.3262 17.6941 13.4031 17.6929H13.4043C14.491 17.6801 15.4658 17.5797 16.3213 17.4302C16.4268 17.6359 16.6774 18.1245 16.9215 18.6091C17.046 18.8554 17.1687 19.1011 17.269 19.3061C17.3202 19.408 17.3651 19.5005 17.4014 19.5775C17.4377 19.6536 17.4662 19.7161 17.4818 19.752C17.5111 19.8207 17.5517 19.877 17.5958 19.9207C17.6739 19.9988 17.7568 20.0472 17.8422 20.0851C17.9711 20.1414 18.1089 20.1742 18.2566 20.1968C18.4046 20.2191 18.5619 20.2296 18.7244 20.2296C19.0438 20.2289 19.3777 20.1906 19.6768 20.1059C19.8256 20.0629 19.9666 20.0082 20.0954 19.9329C20.1602 19.895 20.2215 19.8517 20.2785 19.7989C20.3348 19.747 20.3875 19.6849 20.4293 19.6095C20.5054 19.4748 20.5363 19.3268 20.5355 19.1909C20.5355 18.9992 20.4812 18.8305 20.4128 18.6805C20.309 18.4568 20.168 18.2717 20.0528 18.135C19.9544 18.0198 19.8747 17.9413 19.8478 17.9171L19.8454 17.9136L19.8435 17.9121C19.8419 17.9101 19.8411 17.9094 19.8392 17.9074C19.7927 17.8609 19.5736 17.6352 19.3507 17.3611C19.2269 17.2096 19.1034 17.0437 19.0082 16.8905C18.9754 16.8386 18.9469 16.7874 18.9223 16.7398C19.9005 16.3794 20.507 16.0229 20.7241 15.8854C20.7655 15.8831 20.8107 15.8796 20.8604 15.8749C21.2001 15.8409 21.7394 15.7429 22.3114 15.5071C22.5973 15.3891 22.8905 15.2364 23.1678 15.0373C23.445 14.8381 23.7063 14.5921 23.9226 14.2895L23.9304 14.2781L23.9378 14.266C23.9538 14.2391 23.969 14.2079 23.9807 14.1712C23.992 14.1348 23.9999 14.0923 23.9999 14.0474C24 13.9942 23.9887 13.9388 23.9684 13.8915Z" fill="#E2E2E2"/>
</g>
<defs>
<clipPath id="clip0_1_274">
<rect width="24" height="24" fill="white"/>
</clipPath>
</defs>
</svg>
