<svg width="25" height="25" viewBox="0 0 25 25" fill="none" xmlns="http://www.w3.org/2000/svg">
<g clip-path="url(#clip0_45_31)">
<rect x="0.260376" y="0.679932" width="24" height="24" rx="12" fill="#141414"/>
<path d="M21.8351 13.3932C21.8195 13.3563 21.7986 13.3257 21.7773 13.302C21.7355 13.2554 21.6949 13.231 21.659 13.2126C21.5912 13.1792 21.5318 13.1649 21.4674 13.1514C21.3556 13.1292 21.2294 13.117 21.0876 13.107C20.8761 13.092 20.6327 13.0833 20.3969 13.0689C20.2781 13.0617 20.161 13.0527 20.0526 13.0414C20.0639 12.9871 20.0704 12.9315 20.0701 12.8752C20.0704 12.7353 20.0336 12.5959 19.9679 12.4666C19.902 12.3369 19.8089 12.2154 19.6915 12.0979C19.5793 11.9861 19.4406 11.8171 19.2847 11.6112C19.0114 11.2507 18.683 10.7771 18.301 10.2711C17.7268 9.5116 17.0317 8.67719 16.192 8.02368C15.7721 7.6969 15.3154 7.41573 14.8184 7.21518C14.3216 7.01497 13.7843 6.89624 13.2114 6.89624C12.3379 6.89594 11.55 7.17209 10.8565 7.59164C10.3354 7.90657 9.86464 8.3017 9.43853 8.72815C8.79968 9.36734 8.25953 10.0765 7.8078 10.695C7.58194 11.004 7.37828 11.2905 7.19768 11.5323C7.09429 11.6706 6.9984 11.794 6.91088 11.8984C6.88151 11.8706 6.85279 11.8431 6.82527 11.8156C6.69094 11.6806 6.58193 11.5479 6.50006 11.3644C6.41854 11.1811 6.36135 10.9396 6.36109 10.5816C6.36075 10.2523 6.41104 9.82623 6.53633 9.27389C6.5604 9.16769 6.57195 9.06179 6.57195 8.95777C6.57195 8.71597 6.50854 8.48635 6.40046 8.28423C6.23835 7.97995 5.98028 7.73474 5.67604 7.56292C5.37083 7.39139 5.01687 7.29239 4.65169 7.29205C4.28183 7.29175 3.8988 7.39668 3.56299 7.63503C3.2562 7.85343 3.03878 8.05428 2.88975 8.25359C2.81573 8.35327 2.75884 8.4529 2.71984 8.55445C2.68073 8.65567 2.6604 8.75905 2.6604 8.86027C2.6601 8.97742 2.68823 9.08924 2.73443 9.18547C2.77474 9.27014 2.82784 9.34357 2.88657 9.40694C2.98935 9.51817 3.10932 9.60127 3.22928 9.66937C3.40988 9.77028 3.59385 9.8362 3.73538 9.87933C3.74783 9.88308 3.75972 9.88683 3.7719 9.88994C3.82598 10.6859 3.93342 11.3389 4.07494 11.8787C4.30485 12.7559 4.62724 13.3363 4.94933 13.7321C5.1099 13.9299 5.26984 14.0811 5.4123 14.1994C5.55477 14.3179 5.68065 14.4047 5.7672 14.47C5.97214 14.6237 6.1683 14.7343 6.35547 14.8074C6.4932 14.8611 6.62633 14.8942 6.75345 14.908V14.9083C6.93342 15.0161 7.37951 15.2666 8.07146 15.5343C8.0646 15.5593 8.05271 15.5902 8.03678 15.6243C7.99463 15.7155 7.92465 15.8292 7.84466 15.9417C7.72346 16.112 7.57883 16.2822 7.46543 16.4081C7.40858 16.4709 7.36013 16.5228 7.32578 16.559C7.30827 16.5771 7.29518 16.5909 7.28546 16.5996L7.27984 16.6059C7.27924 16.6065 7.27643 16.6096 7.27234 16.6137C7.24264 16.6421 7.12924 16.752 7.01149 16.9098C6.94526 16.9998 6.87653 17.1048 6.82122 17.2244C6.76654 17.3444 6.72312 17.4793 6.72222 17.6327C6.72158 17.7414 6.74719 17.8598 6.80749 17.9676C6.8406 18.0279 6.88275 18.0776 6.92839 18.1191C7.00804 18.1926 7.09864 18.245 7.19426 18.2872C7.3389 18.3509 7.4979 18.3931 7.66474 18.4215C7.83154 18.45 8.00434 18.4637 8.17114 18.4637C8.36981 18.4631 8.55788 18.4449 8.72531 18.4009C8.80905 18.3778 8.88776 18.3487 8.964 18.3031C9.0021 18.2803 9.0393 18.2528 9.07459 18.2166C9.10928 18.1816 9.14239 18.1366 9.16613 18.0816C9.17985 18.0485 9.20738 17.9891 9.24296 17.9151C9.36731 17.6548 9.5916 17.21 9.78311 16.833C9.87934 16.644 9.96713 16.4718 10.0308 16.3472C10.0627 16.2844 10.089 16.2338 10.1071 16.1985C10.1249 16.1638 10.1346 16.1444 10.1346 16.1444L10.1352 16.1432L10.1367 16.1416C10.138 16.1391 10.1396 16.1363 10.1402 16.1335C11.0112 16.3119 12.0346 16.4353 13.1989 16.4353C13.2604 16.4353 13.3214 16.4353 13.3829 16.4343H13.3838C14.2532 16.4241 15.033 16.3437 15.7175 16.2241C15.8018 16.3887 16.0023 16.7796 16.1976 17.1672C16.2972 17.3643 16.3954 17.5609 16.4756 17.7249C16.5166 17.8064 16.5525 17.8804 16.5815 17.942C16.6106 18.0029 16.6334 18.0528 16.6459 18.0816C16.6693 18.1366 16.7018 18.1816 16.7371 18.2166C16.7996 18.279 16.8658 18.3178 16.9342 18.3481C17.0373 18.3931 17.1476 18.4193 17.2657 18.4374C17.3841 18.4552 17.51 18.4637 17.6399 18.4637C17.8955 18.4631 18.1626 18.4324 18.4019 18.3647C18.5209 18.3303 18.6336 18.2866 18.7367 18.2263C18.7886 18.196 18.8376 18.1613 18.8832 18.1191C18.9282 18.0776 18.9704 18.0279 19.0038 17.9676C19.0647 17.8598 19.0894 17.7414 19.0888 17.6327C19.0888 17.4793 19.0454 17.3444 18.9907 17.2244C18.9076 17.0454 18.7948 16.8973 18.7026 16.788C18.6239 16.6959 18.5602 16.633 18.5386 16.6137V16.6131C18.538 16.6121 18.5374 16.6115 18.5367 16.6109C18.5358 16.6103 18.5358 16.6096 18.5352 16.6096C18.5339 16.6081 18.5333 16.6075 18.5318 16.6059C18.4946 16.5687 18.3193 16.3882 18.1409 16.1689C18.0419 16.0477 17.9432 15.9149 17.867 15.7924C17.8407 15.7509 17.8179 15.7099 17.7983 15.6718C18.5808 15.3835 19.066 15.0983 19.2397 14.9883C19.2728 14.9865 19.309 14.9836 19.3487 14.9799C19.6205 14.9527 20.0519 14.8743 20.5095 14.6856C20.7382 14.5913 20.9728 14.4691 21.1946 14.3098C21.4164 14.1505 21.6254 13.9537 21.7985 13.7116L21.8047 13.7025L21.8106 13.6928C21.8234 13.6713 21.8356 13.6463 21.845 13.6169C21.854 13.5878 21.8603 13.5538 21.8603 13.5179C21.8604 13.4754 21.8514 13.431 21.8351 13.3932Z" fill="#E2E2E2"/>
</g>
<defs>
<clipPath id="clip0_45_31">
<rect width="24" height="24" fill="white" transform="translate(0.260376 0.679932)"/>
</clipPath>
</defs>
</svg>
